<svg xmlns="http://www.w3.org/2000/svg" viewBox="0 0 16 16" id="Bomb--Streamline-Font-Awesome" height="16" width="16">
  <desc>
    Bomb Streamline Icon: https://streamlinehq.com
  </desc>
<!--! Font Awesome Free 6.5.2 by @fontawesome - https://fontawesome.com License - https://fontawesome.com/license/free (Icons: CC BY 4.0, Fonts: SIL OFL 1.1, Code: MIT License) Copyright 2024 Fonticons, Inc.-->
  <path d="M14.346875 1.6375 13.83125 0.203125c-0.059375 -0.121875 -0.190625 -0.203125 -0.328125 -0.203125s-0.265625 0.08125 -0.325 0.203125l-0.515625 1.434375 -1.4375 0.525c-0.134375 0.05 -0.228125 0.184375 -0.225 0.325 0 0.140625 0.09375 0.271875 0.225 0.31875l1.428125 0.525 0.525 1.43125c0.046875 0.1375 0.18125 0.234375 0.325 0.234375s0.278125 -0.096875 0.325 -0.234375l0.515625 -1.43125 1.428125 -0.525c0.13125 -0.046875 0.225 -0.178125 0.225 -0.31875 0 -0.14375 -0.09375 -0.278125 -0.225 -0.325l-1.425 -0.525zm-4.1375 1.65625c-0.390625 -0.390625 -1.025 -0.390625 -1.415625 0l-0.090625 0.090625c-0.6875 -0.25 -1.43125 -0.384375 -2.203125 -0.384375C2.909375 3 0 5.909375 0 9.5s2.909375 6.5 6.5 6.5 6.5 -2.909375 6.5 -6.5c0 -0.771875 -0.134375 -1.515625 -0.38125 -2.203125l0.090625 -0.090625c0.390625 -0.390625 0.390625 -1.025 0 -1.415625l-2.5 -2.5zM6.25 6c-1.79375 0 -3.25 1.45625 -3.25 3.25v0.25c0 0.275 -0.225 0.5 -0.5 0.5s-0.5 -0.225 -0.5 -0.5v-0.25c0 -2.346875 1.903125 -4.25 4.25 -4.25h0.25c0.275 0 0.5 0.225 0.5 0.5s-0.225 0.5 -0.5 0.5h-0.25z" fill="#000000" stroke-width="0.0313"></path>
</svg>