<?xml version="1.0" encoding="UTF-8"?>
<svg version="1.1" xmlns="http://www.w3.org/2000/svg" width="512" height="512">
<path d="M0 0 C4.83415824 2.84723727 8.0861835 7.547367 10.5625 12.5 C10.69665472 15.1723621 10.60568541 17.82250488 10.5625 20.5 C11.08255615 20.3462793 11.6026123 20.19255859 12.13842773 20.03417969 C22.62318242 17.72371104 34.33159517 18.25944858 45 18.25 C45.70093781 18.24932526 46.40187561 18.24865051 47.12405396 18.24795532 C104.92585188 18.33473385 159.50576472 33.10451821 207.80224609 65.10424805 C253.0718505 95.03097657 303.81751425 110.688664 358.1875 110.75 C358.8981662 110.75133942 359.6088324 110.75267883 360.34103394 110.75405884 C377.63626958 110.7470695 394.72549683 109.20397684 411.6875 105.75 C418.89273564 104.30742634 424.24821333 103.72010531 430.9375 107.3125 C434.91696018 110.62871682 437.05266739 113.39465592 437.90625 118.59375 C438.42811855 126.63052565 435.26501547 131.22155193 430.5625 137.5 C429.80195313 138.53253906 429.04140625 139.56507813 428.2578125 140.62890625 C419.67067143 152.11435956 410.23031872 162.91920009 400.5625 173.5 C399.65476883 174.50113974 398.74722519 175.50244953 397.83984375 176.50390625 C390.88145733 184.16473548 383.85845992 191.6708382 375.98828125 198.41015625 C374.09083337 200.04483357 372.21937667 201.69882783 370.35546875 203.37109375 C329.26301152 239.99124613 276.28807536 267.93431646 219.95703125 265.28515625 C204.55795424 264.30937056 189.88960567 261.10244548 175.0546875 256.98046875 C142.24553982 247.90254392 107.16194434 244.62452385 73.5625 251.5 C72.4799292 251.70882812 72.4799292 251.70882812 71.37548828 251.921875 C54.14982499 255.29746427 37.14129759 261.25448361 21.60111833 269.43317062 C20.24166399 270.14458668 18.86589143 270.82564827 17.47592139 271.47542685 C13.30108533 273.60363685 13.30108533 273.60363685 10.82813311 277.39316523 C10.54592166 279.76161882 10.52626183 282.01485224 10.5894165 284.39949036 C10.58131982 285.29649947 10.57322313 286.19350859 10.56488109 287.1176998 C10.5473514 290.12502833 10.58684854 293.12890101 10.62597656 296.13598633 C10.62491909 298.29120834 10.62028911 300.44643114 10.61235046 302.60163879 C10.60286942 307.24387953 10.618585 311.88511561 10.65372467 316.52723122 C10.70901763 323.86847782 10.7078518 331.2090515 10.69891357 338.55046082 C10.69140641 350.16446602 10.72118283 361.77802539 10.76713252 373.39193124 C10.84908128 394.18236162 10.88652199 414.97280404 10.88252425 435.76339358 C10.88283756 443.05967319 10.90545666 450.35544633 10.9460597 457.65160906 C10.9678091 462.1938457 10.97338906 466.73600391 10.97498512 471.27828789 C10.97923653 473.38257051 10.99039813 475.48685241 11.0090313 477.59105682 C11.03365209 480.46752838 11.03357221 483.34301113 11.02764893 486.21955872 C11.04747499 487.46350166 11.04747499 487.46350166 11.06770158 488.73257476 C11.01241904 495.34536482 9.24515383 500.78645189 4.52734375 505.55859375 C3.85832031 506.01363281 3.18929687 506.46867187 2.5 506.9375 C1.82839844 507.41058594 1.15679687 507.88367188 0.46484375 508.37109375 C-4.96664828 511.59429949 -11.33789301 510.91366015 -17.4375 510.5 C-23.50507065 508.44135996 -27.55134538 504.46296678 -30.55430263 498.85251796 C-32.66692397 494.49452562 -33.00191183 490.83525396 -32.94365788 486.0472126 C-32.94977123 485.23055844 -32.95588459 484.41390428 -32.96218321 483.57250303 C-32.97775533 480.84223888 -32.96492853 478.11286657 -32.9521637 475.38259888 C-32.95749006 473.40291192 -32.96455626 471.42322901 -32.97321075 469.44355381 C-32.99185309 464.00809241 -32.9855275 458.57290319 -32.97505772 453.13743043 C-32.96807025 447.27363343 -32.98406027 441.40989259 -32.99705505 435.54611206 C-33.01870815 424.06020281 -33.01856472 412.57439259 -33.01042951 401.08846964 C-33.00413191 391.75330616 -33.00517438 382.41816883 -33.01170158 373.083004 C-33.01261292 371.74138557 -33.01352368 370.39976714 -33.01443387 369.0581487 C-33.01581702 367.03640858 -33.01720811 365.01466846 -33.01862001 362.99292836 C-33.0315997 344.19807757 -33.03671649 325.40323755 -33.0250864 306.60838509 C-33.02442945 305.54579617 -33.02442945 305.54579617 -33.02375922 304.46174081 C-33.02015245 298.70922023 -33.01631765 292.9566998 -33.01246829 287.20417938 C-32.997622 264.7670966 -33.00639845 242.33013555 -33.03442383 219.89306641 C-33.06585752 194.67914049 -33.08081984 169.46528663 -33.07062382 144.25134075 C-33.06958705 141.56243636 -33.06859982 138.87353195 -33.0676403 136.18462753 C-33.06739142 135.52256154 -33.06714253 134.86049554 -33.0668861 134.17836693 C-33.06344724 124.18781783 -33.07279634 114.19735425 -33.08841133 104.20682144 C-33.10592388 92.84362644 -33.1058327 81.48059688 -33.08305968 70.11740841 C-33.0719076 64.31969974 -33.06877722 58.52228266 -33.08736038 52.72458649 C-33.10415704 47.41594206 -33.09782457 42.10784373 -33.07314359 36.79923473 C-33.06825728 34.88006474 -33.07178418 32.96085076 -33.08463103 31.04171754 C-33.20410946 11.80315863 -33.20410946 11.80315863 -27.4375 4.5 C-20.19454952 -2.29037194 -9.20045429 -4.04748667 0 0 Z " fill="#000000" transform="translate(53.4375,1.5)"/>
</svg>
